{
  "accessors": [
    {
      "bufferView": 2,
      "componentType": 5126,
      "count": 65532,
      "max": [
        1.9961260557174683,
        7.463803768157959,
        1.7187830209732056
      ],
      "min": [
        -2.1445438861846924,
        4.31648588180542,
        -2.2018589973449707
      ],
      "type": "VEC3"
    },
    {
      "bufferView": 2,
      "byteOffset": 786384,
      "componentType": 5126,
      "count": 65532,
      "max": [
        0.999908983707428,
        0.9999032616615295,
        0.9999752640724182
      ],
      "min": [
        -0.9999382495880127,
        -0.999995231628418,
        -0.9999969005584717
      ],
      "type": "VEC3"
    },
    {
      "bufferView": 1,
      "componentType": 5126,
      "count": 65532,
      "max": [
        0.9916560053825378,
        0.9974169731140137
      ],
      "min": [
        0.0025770000647753477,
        0.003512999974191189
      ],
      "type": "VEC2"
    },
    {
      "bufferView": 0,
      "componentType": 5125,
      "count": 351060,
      "type": "SCALAR"
    },
    {
      "bufferView": 2,
      "byteOffset": 1572768,
      "componentType": 5126,
      "count": 65532,
      "max": [
        2.007469892501831,
        7.706037998199463,
        1.6716909408569336
      ],
      "min": [
        -2.1472830772399902,
        4.317151069641113,
        -2.2018589973449707
      ],
      "type": "VEC3"
    },
    {
      "bufferView": 2,
      "byteOffset": 2359152,
      "componentType": 5126,
      "count": 65532,
      "max": [
        0.9999226331710815,
        0.9999009966850281,
        0.9999921321868896
      ],
      "min": [
        -0.9999733567237854,
        -0.9999809861183167,
        -0.9998521208763123
      ],
      "type": "VEC3"
    },
    {
      "bufferView": 1,
      "byteOffset": 524256,
      "componentType": 5126,
      "count": 65532,
      "max": [
        0.9916710257530212,
        0.9989230036735535
      ],
      "min": [
        6.0999998822808266e-05,
        0.00014000000373926014
      ],
      "type": "VEC2"
    },
    {
      "bufferView": 0,
      "byteOffset": 1404240,
      "componentType": 5125,
      "count": 325065,
      "type": "SCALAR"
    },
    {
      "bufferView": 2,
      "byteOffset": 3145536,
      "componentType": 5126,
      "count": 18249,
      "max": [
        2.007469892501831,
        7.70687198638916,
        1.6990669965744019
      ],
      "min": [
        -1.3040740489959717,
        4.3406500816345215,
        -1.4101760387420654
      ],
      "type": "VEC3"
    },
    {
      "bufferView": 2,
      "byteOffset": 3364524,
      "componentType": 5126,
      "count": 18249,
      "max": [
        0.9998247623443604,
        0.9999969005584717,
        0.9999594688415527
      ],
      "min": [
        -0.9935457706451416,
        -0.9999704957008362,
        -0.9993577599525452
      ],
      "type": "VEC3"
    },
    {
      "bufferView": 1,
      "byteOffset": 1048512,
      "componentType": 5126,
      "count": 18249,
      "max": [
        0.9909960031509399,
        0.9998440146446228
      ],
      "min": [
        0.004557999782264233,
        0.0005610000225715339
      ],
      "type": "VEC2"
    },
    {
      "bufferView": 0,
      "byteOffset": 2704500,
      "componentType": 5125,
      "count": 73875,
      "type": "SCALAR"
    }
  ],
  "asset": {
    "extras": {
      "author": "ஜCIHIRISஜ (https://sketchfab.com/crazy4creativity)",
      "license": "CC-BY-4.0 (http://creativecommons.org/licenses/by/4.0/)",
      "source": "https://sketchfab.com/3d-models/star-wars-grogu-4a57954690eb4377b62a6290b2dee070",
      "title": "Star Wars - Grogu"
    },
    "generator": "Sketchfab-13.31.0",
    "version": "2.0"
  },
  "bufferViews": [
    {
      "buffer": 0,
      "byteLength": 3000000,
      "name": "floatBufferViews",
      "target": 34963
    },
    {
      "buffer": 0,
      "byteLength": 1194504,
      "byteOffset": 3000000,
      "byteStride": 8,
      "name": "floatBufferViews",
      "target": 34962
    },
    {
      "buffer": 0,
      "byteLength": 3583512,
      "byteOffset": 4194504,
      "byteStride": 12,
      "name": "floatBufferViews",
      "target": 34962
    }
  ],
  "buffers": [
    {
      "byteLength": 7778016,
      "uri": "scene.bin"
    }
  ],
  "images": [
    {
      "uri": "textures/Grogu_baseColor.jpeg"
    }
  ],
  "materials": [
    {
      "doubleSided": true,
      "name": "Grogu",
      "pbrMetallicRoughness": {
        "baseColorTexture": {
          "index": 0
        },
        "metallicFactor": 0.0
      }
    }
  ],
  "meshes": [
    {
      "name": "Object_0",
      "primitives": [
        {
          "attributes": {
            "NORMAL": 1,
            "POSITION": 0,
            "TEXCOORD_0": 2
          },
          "indices": 3,
          "material": 0,
          "mode": 4
        }
      ]
    },
    {
      "name": "Object_1",
      "primitives": [
        {
          "attributes": {
            "NORMAL": 5,
            "POSITION": 4,
            "TEXCOORD_0": 6
          },
          "indices": 7,
          "material": 0,
          "mode": 4
        }
      ]
    },
    {
      "name": "Object_2",
      "primitives": [
        {
          "attributes": {
            "NORMAL": 9,
            "POSITION": 8,
            "TEXCOORD_0": 10
          },
          "indices": 11,
          "material": 0,
          "mode": 4
        }
      ]
    }
  ],
  "nodes": [
    {
      "children": [
        1
      ],
      "matrix": [
        -0.18462443351745605,
        -0.8554734587669371,
        -0.4838170707225801,
        0.0,
        0.3009202182292938,
        -0.517841696739197,
        0.8008039593696593,
        0.0,
        -0.9356071949005127,
        0.0022576383780687262,
        0.35303550958633423,
        0.0,
        0.0,
        0.0,
        0.0,
        1.0
      ],
      "name": "Sketchfab_model"
    },
    {
      "children": [
        2,
        3,
        4
      ],
      "name": "Grogu.obj.cleaner.materialmerger.gles"
    },
    {
      "mesh": 0,
      "name": "Object_2"
    },
    {
      "mesh": 1,
      "name": "Object_3"
    },
    {
      "mesh": 2,
      "name": "Object_4"
    }
  ],
  "samplers": [
    {
      "magFilter": 9729,
      "minFilter": 9987,
      "wrapS": 10497,
      "wrapT": 10497
    }
  ],
  "scene": 0,
  "scenes": [
    {
      "name": "Sketchfab_Scene",
      "nodes": [
        0
      ]
    }
  ],
  "textures": [
    {
      "sampler": 0,
      "source": 0
    }
  ]
}
